<svg id="svg" fill="#000000" stroke="#000000" width="38" height="38" version="1.1" viewBox="144 144 512 512" xmlns="http://www.w3.org/2000/svg" stroke-width="0">
    <g id="IconSvg_bgCarrier" stroke-width="0"></g>
    <g id="IconSvg_tracerCarrier" stroke-linecap="round" stroke-linejoin="round" stroke="#CCCCCC" stroke-width="0">
      <path xmlns="http://www.w3.org/2000/svg" d="m329.41 195.36c-30.465 0-47.707 18.727-55.434 36.113-7.6523 17.535-7.5195 34.629-7.5195 34.629v15.754h-55.137c-4.0703-0.003906-7.4766 3.1055-7.8477 7.1641l-23.629 274.94c-0.39453 4.5938 3.2383 8.5469 7.8477 8.5312h224.41c22.145 19.617 51.273 31.508 83.078 31.508 69.402 0 125.88-56.473 125.88-125.88 0-69.402-56.473-125.88-125.88-125.88-11.605 0-22.887 1.6367-33.586 4.6055l-5.8398-68.215c-0.36328-4.0586-3.7617-7.1641-7.832-7.1641h-54.988v-15.754s0.10547-17.09-7.5508-34.629c-7.6523-17.535-24.82-36.113-55.434-36.113zm0 15.754c24.523 0 34.926 12.797 41.02 26.75 6.1094 13.969 6.2422 28.387 6.2422 28.387v15.754h-94.371v-15.754s0.10156-14.34 6.2109-28.387c6.1094-13.969 16.496-26.75 41.02-26.75zm-110.72 86.496h47.855v31.508h-7.8633c-4.3398 0-7.8633 3.5234-7.8633 7.8633 0 4.3398 3.5234 7.8633 7.8633 7.8633h31.508c4.3398 0 7.8633-3.5234 7.8633-7.8633 0-4.3398-3.5234-7.8633-7.8633-7.8633h-7.832v-31.508h94.371v31.508h-7.8633c-4.3555-0.003906-7.875 3.5234-7.875 7.8633 0 4.3398 3.5234 7.875 7.875 7.8633h31.508c4.3398-0.015625 7.832-3.5352 7.832-7.8633 0-4.3242-3.5078-7.8477-7.832-7.8633h-7.8633v-31.508h47.855l5.5742 65.094c-45.18 19.172-76.984 64.055-76.984 115.92 0 29.723 10.387 57.07 27.645 78.617h-200.63zm276.43 125.88c4.1172 0 7.875 3.2695 7.875 7.8633v39.383h39.383c4.3398 0 7.8633 3.5234 7.8633 7.8633 0 4.3555-3.5234 7.875-7.8633 7.875h-39.383v39.383c0 4.3398-3.5234 7.8633-7.8633 7.8633s-7.8633-3.5234-7.8633-7.8633v-39.383h-39.383c-4.3555 0.003906-7.875-3.5234-7.875-7.875 0-4.3555 3.5234-7.875 7.875-7.8633h39.383v-39.383c0-4.3398 3.5234-7.8633 7.8633-7.8633z"></path>

      </g>
     <g id="IconSvg_iconCarrier">
      <path xmlns="http://www.w3.org/2000/svg" d="m329.41 195.36c-30.465 0-47.707 18.727-55.434 36.113-7.6523 17.535-7.5195 34.629-7.5195 34.629v15.754h-55.137c-4.0703-0.003906-7.4766 3.1055-7.8477 7.1641l-23.629 274.94c-0.39453 4.5938 3.2383 8.5469 7.8477 8.5312h224.41c22.145 19.617 51.273 31.508 83.078 31.508 69.402 0 125.88-56.473 125.88-125.88 0-69.402-56.473-125.88-125.88-125.88-11.605 0-22.887 1.6367-33.586 4.6055l-5.8398-68.215c-0.36328-4.0586-3.7617-7.1641-7.832-7.1641h-54.988v-15.754s0.10547-17.09-7.5508-34.629c-7.6523-17.535-24.82-36.113-55.434-36.113zm0 15.754c24.523 0 34.926 12.797 41.02 26.75 6.1094 13.969 6.2422 28.387 6.2422 28.387v15.754h-94.371v-15.754s0.10156-14.34 6.2109-28.387c6.1094-13.969 16.496-26.75 41.02-26.75zm-110.72 86.496h47.855v31.508h-7.8633c-4.3398 0-7.8633 3.5234-7.8633 7.8633 0 4.3398 3.5234 7.8633 7.8633 7.8633h31.508c4.3398 0 7.8633-3.5234 7.8633-7.8633 0-4.3398-3.5234-7.8633-7.8633-7.8633h-7.832v-31.508h94.371v31.508h-7.8633c-4.3555-0.003906-7.875 3.5234-7.875 7.8633 0 4.3398 3.5234 7.875 7.875 7.8633h31.508c4.3398-0.015625 7.832-3.5352 7.832-7.8633 0-4.3242-3.5078-7.8477-7.832-7.8633h-7.8633v-31.508h47.855l5.5742 65.094c-45.18 19.172-76.984 64.055-76.984 115.92 0 29.723 10.387 57.07 27.645 78.617h-200.63zm276.43 125.88c4.1172 0 7.875 3.2695 7.875 7.8633v39.383h39.383c4.3398 0 7.8633 3.5234 7.8633 7.8633 0 4.3555-3.5234 7.875-7.8633 7.875h-39.383v39.383c0 4.3398-3.5234 7.8633-7.8633 7.8633s-7.8633-3.5234-7.8633-7.8633v-39.383h-39.383c-4.3555 0.003906-7.875-3.5234-7.875-7.875 0-4.3555 3.5234-7.875 7.875-7.8633h39.383v-39.383c0-4.3398 3.5234-7.8633 7.8633-7.8633z"></path>

      </g>
      </svg>