<svg id="svg" fill="#000000" stroke="#000000" width="38" height="38" version="1.1" viewBox="143 143 514 514" xmlns="http://www.w3.org/2000/svg" transform="matrix(1, 0, 0, 1, 0, 0)" stroke-width="12">
    <g id="IconSvg_bgCarrier" stroke-width="0"></g>
    <g id="IconSvg_tracerCarrier" stroke-linecap="round" stroke-linejoin="round" stroke="#CCCCCC" stroke-width="0">
      <g xmlns="http://www.w3.org/2000/svg">
  <path d="m338.2 384.7c-2.5078 0-5.0195 0.050782-7.4766-0.050781-1.1328-0.050781-2.2617-0.14844-3.3945-0.24609-0.44141-0.050782-0.88672-0.14844-1.3281-0.14844 2.4102 0.14844 1.2305 0.19531 0.58984 0.050781-2.2148-0.39453-4.3789-0.83594-6.4961-1.4258-1.918-0.54297-3.7891-1.1797-5.6094-1.8711-1.7227-0.64062 0.39453 0.24609 0.54297 0.24609-0.39453 0-1.1328-0.49219-1.4766-0.6875-1.082-0.49219-2.1641-1.0312-3.1992-1.625-1.7227-0.93359-3.3945-1.918-5.0195-3-0.78906-0.54297-1.5742-1.1797-2.3633-1.6719-1.1797-0.73828 1.8711 1.5742 0.19531 0.14844-0.49219-0.39453-0.98438-0.83594-1.4766-1.2305-1.4766-1.2773-2.8555-2.6094-4.2305-3.9844-0.58984-0.64062-1.1797-1.2773-1.7695-1.918-0.44141-0.49219-0.83594-0.98438-1.2773-1.4766-0.14844-0.14844-0.29687-0.34375-0.39453-0.49219-0.64062-0.83594-0.54297-0.6875 0.34375 0.44141-0.54297-0.24609-1.1797-1.5742-1.5234-2.1172-0.58984-0.88672-1.1797-1.8203-1.7695-2.707-1.082-1.7695-2.0664-3.5898-2.9531-5.4102-0.24609-0.49219-0.44141-0.98438-0.6875-1.4766-0.58984-1.2305-0.19531 0.29688 0.24609 0.54297-0.44141-0.24609-0.88672-2.3125-1.0312-2.7539-0.73828-2.0664-1.3281-4.2305-1.8203-6.3477-0.24609-0.98438-0.44141-1.9688-0.58984-2.9531 0 0-0.29688-1.2305-0.19531-1.3281-0.39453 0.49219 0.24609 2.1641 0.050782 0.29688-0.24609-2.1641-0.34375-4.3281-0.34375-6.4961-0.050782-9.2969 0-18.598 0-27.898v-4.4766c0-0.98438 0-2.0156 0.050781-3 0.050781-0.88672 0.097656-1.8203 0.19531-2.707 0.050781-0.54297 0.097656-1.1328 0.19531-1.6719 0.097656-0.93359-0.34375 2.2617 0.050781-0.050781 0.6875-4.2305 2.1641-8.0703 3.3945-12.102 0.44141-1.3789-1.0312 2.2148-0.097656 0.24609 0.19531-0.39453 0.34375-0.78906 0.54297-1.1797 0.39453-0.88672 0.83594-1.7695 1.3281-2.6094 0.98438-1.8203 2.0156-3.5898 3.1992-5.2656 0.34375-0.49219 1.3281-2.4102 1.8711-2.6562-0.097656 0.050782-1.5234 1.8711-0.34375 0.44141 0.29688-0.34375 0.54297-0.6875 0.83594-0.98438 1.3789-1.625 2.8555-3.1992 4.4297-4.7227 0.78906-0.73828 1.5742-1.4766 2.4102-2.1641 0.49219-0.44141 1.3789-1.5234 2.0156-1.625-1.2773 0.24609-1.2773 0.93359-0.19531 0.14844 0.44141-0.29687 0.88672-0.64062 1.3281-0.93359 0.88672-0.58984 1.8203-1.1797 2.707-1.7695 1.6719-1.0312 3.3945-1.9688 5.1172-2.8047 0.49219-0.24609 0.98438-0.44141 1.4766-0.6875 1.4766-0.6875 0.19531-0.6875-0.24609 0.097656 0.34375-0.54297 2.4102-0.93359 3.1016-1.1328 1.8711-0.64062 3.7891-1.1797 5.707-1.625 0.98438-0.24609 1.9688-0.44141 2.9531-0.58984 0.24609-0.050781 1.5234-0.39453 1.6719-0.29688-0.44141 0.050781-0.83594 0.097656-1.2773 0.14844 0.44141-0.050781 0.88672-0.097656 1.3281-0.14844 3.1992-0.34375 6.4453-0.29688 9.6445-0.29688 1.3281 0 2.6562 0 3.9844 0.050781 0.88672 0.050781 1.8203 0.097657 2.707 0.19531 0.54297 0.050781 1.1328 0.097656 1.6719 0.19531 0.93359 0.097656-2.2617-0.34375 0.050782 0.050782 4.2305 0.6875 8.0703 2.1641 12.102 3.3945 1.3789 0.44141-2.2148-1.0312-0.24609-0.097657 0.39453 0.19531 0.78906 0.34375 1.1797 0.54297 0.88672 0.39453 1.7695 0.83594 2.6094 1.3281 1.8203 0.98438 3.5898 2.0156 5.2656 3.1992 0.49219 0.34375 2.4102 1.3281 2.6562 1.8711-0.050782-0.097657-1.8711-1.5234-0.44141-0.34375 0.39453 0.34375 0.83594 0.6875 1.2305 1.0312 1.5742 1.3281 3.0508 2.707 4.4766 4.2305 0.73828 0.78906 1.4766 1.5742 2.1641 2.4102 0.44141 0.49219 1.5234 1.3789 1.625 2.0156-0.24609-1.2773-0.93359-1.2773-0.14844-0.19531 0.29688 0.44141 0.64062 0.88672 0.93359 1.3281 0.58984 0.88672 1.1797 1.8203 1.7695 2.707 1.0312 1.6719 1.9688 3.3945 2.8047 5.1172 0.24609 0.49219 0.44141 0.98438 0.6875 1.4766 0.6875 1.4766 0.6875 0.19531-0.097656-0.24609 0.54297 0.34375 0.93359 2.4102 1.1328 3.1016 0.64063 1.8711 1.1797 3.7891 1.625 5.707 0.24609 0.98438 0.44141 1.9688 0.58984 2.9531 0.050782 0.24609 0.39453 1.5234 0.29688 1.6719-0.050781-0.44141-0.097656-0.83594-0.14844-1.2773 0.050781 0.44141 0.097656 0.88672 0.14844 1.3281 0.44141 4.1836 0.29688 8.4141 0.29688 12.594v17.418c0 3.8359 0.097656 7.6758-0.050781 11.512-0.050781 1.1328-0.14844 2.2617-0.24609 3.3945-0.050781 0.44141-0.14844 0.88672-0.14844 1.3281 0.14844-2.4102 0.19531-1.2305 0.050781-0.58984-0.39453 2.2148-0.83594 4.3789-1.4258 6.4961-0.54297 1.918-1.1797 3.7891-1.8711 5.6094-0.64062 1.7227 0.24609-0.39453 0.24609-0.54297 0 0.39453-0.49219 1.1328-0.6875 1.4766-0.49219 1.082-1.0312 2.1641-1.625 3.1992-0.93359 1.7227-1.918 3.3945-3 5.0195-0.54297 0.78906-1.1797 1.5742-1.6719 2.3633-0.73828 1.1797 1.5742-1.8711 0.14844-0.19531-0.39453 0.49219-0.83594 0.98438-1.2305 1.4766-1.2773 1.4766-2.6094 2.8555-3.9844 4.2305-0.64062 0.58984-1.2773 1.1797-1.918 1.7695-0.39453 0.34375-0.83594 0.6875-1.2305 1.0312-0.24609 0.19531-2.0664 1.5742-0.78906 0.64062 1.1797-0.88672-1.1797 0.83594-1.625 1.1328-0.88672 0.58984-1.8203 1.1797-2.707 1.7695-1.7695 1.082-3.5898 2.0664-5.4102 2.9531-0.49219 0.24609-0.98438 0.44141-1.4766 0.6875-1.2305 0.58984 0.29688 0.19531 0.54297-0.24609-0.24609 0.44141-2.3125 0.88672-2.7539 1.0312-1.9688 0.6875-3.9844 1.2773-6.0508 1.7695-1.082 0.24609-2.1641 0.49219-3.2969 0.6875 0 0-1.2305 0.29688-1.3281 0.19531 0.49219 0.39453 2.1641-0.24609 0.29688-0.050781-2.293 0.003906-4.457 0.10156-6.6211 0.10156-5.1641 0.050782-10.086 4.5273-9.8398 9.8398 0.24609 5.3125 4.3281 9.8906 9.8398 9.8398 19.633-0.097656 39.016-8.6094 51.906-23.469 11.609-13.332 17.516-29.863 17.516-47.527v-30.652c-0.050781-18.301-7.1328-35.965-19.926-49.051-13.383-13.676-31.734-20.859-50.727-20.859-8.5625 0-17.121 0.73828-25.289 3.543-9.543 3.2461-18.254 8.4141-25.633 15.301-14.023 12.988-21.941 31.684-22.043 50.727-0.050781 9.9883 0 20.023 0 30.012 0 6.6914 0.54297 13.383 2.2148 19.875 2.5078 9.7422 7.2305 18.547 13.48 26.422 12.152 15.301 30.945 24.5 50.332 25.633 2.707 0.14844 5.4609 0.097656 8.168 0.097656 5.1641 0 10.086-4.5273 9.8398-9.8398-0.24609-5.3633-4.3281-9.8906-9.8398-9.8906z"></path>
  <path d="m454.17 512.18v70.801 9.8906c3.2969-3.2969 6.543-6.543 9.8398-9.8398h-25.586-61.203-73.996-63.961c-10.332 0-20.812-0.44141-31.145 0h-0.44141c3.2969 3.2969 6.543 6.543 9.8398 9.8398v-67.258-12.203c0-1.5742 0-3.1016 0.097656-4.6758 0.050781-1.1328 0.29688-2.2617 0.29688-3.3945 0 2.6562-0.097656 0.6875 0.050782-0.050782 0.097656-0.64062 0.24609-1.3281 0.34375-1.9688 0.54297-2.6094 1.2305-5.1641 2.1172-7.625 0.14844-0.39453 0.29688-0.83594 0.44141-1.2305 0.097657-0.19531 0.14844-0.39453 0.24609-0.58984 0.39453-0.98438 0.34375-0.78906-0.24609 0.54297-0.14844-0.78906 1.3281-2.8047 1.6719-3.543 1.1328-2.2148 2.4102-4.3281 3.8359-6.3945 0.29688-0.44141 0.64062-0.88672 0.93359-1.3281 1.2773-1.8711-1.4258 1.6719 0.050781-0.050782 0.73828-0.93359 1.5234-1.8203 2.3125-2.707 1.6719-1.8203 3.4453-3.5898 5.3125-5.2148 0.49219-0.44141 0.98438-0.83594 1.4766-1.2305 1.7227-1.4766-1.7695 1.2773 0.050781-0.050781 0.88672-0.64062 1.7695-1.2773 2.6562-1.8711 2.1641-1.4258 4.4766-2.7539 6.7891-3.8867 0.58984-0.29688 1.1797-0.54297 1.7695-0.83594 2.0664-0.98438-2.0664 0.78906 0.050782-0.050781 1.0312-0.39453 2.0664-0.78906 3.1016-1.1328 2.5078-0.83594 5.1172-1.5234 7.7227-2.0156 0.64062-0.14844 1.3281-0.24609 1.9688-0.34375 2.3125-0.44141-2.3125 0.19531 0.050782 0 1.1328-0.097656 2.2617-0.24609 3.3945-0.29687 1.1797-0.050782 2.3633-0.097657 3.543-0.097657h1.8711 9.7422 36.164 79.359 8.7578 1.3789c2.0664 0 4.082 0.097657 6.1484 0.29688 0.24609 0 0.44141 0.050782 0.6875 0.050782 1.082 0.14844 0.88672 0.097656-0.58984-0.097657 0.19531-0.14844 1.7227 0.29688 1.9688 0.34375 1.3281 0.24609 2.6094 0.54297 3.8867 0.83594 2.3633 0.58984 4.5742 1.3789 6.8867 2.2148 2.1641 0.78906-2.0156-0.93359 0.050782 0 0.58984 0.29688 1.1797 0.54297 1.7695 0.83594 1.1797 0.54297 2.3125 1.1797 3.4453 1.8203 2.0664 1.1797 3.9844 2.5078 5.9531 3.8359 1.8711 1.2773-1.6719-1.4258 0.050782 0.050781 0.34375 0.29688 0.64062 0.54297 0.98437 0.83594 1.1328 0.98438 2.2617 1.9688 3.2969 3 1.6719 1.6719 3.1992 3.3945 4.7227 5.2148 1.4258 1.7227-1.2773-1.8203 0 0.050782 0.24609 0.34375 0.49219 0.6875 0.73828 1.0312 0.83594 1.2305 1.6719 2.5078 2.4102 3.7891 0.54297 0.93359 1.082 1.8711 1.5742 2.8047 0.29688 0.58984 1.8711 2.9023 1.6719 3.4922 0.097656-0.34375-0.73828-1.8711-0.24609-0.54297 0.24609 0.58984 0.49219 1.2305 0.6875 1.8203 0.49219 1.4258 0.98438 2.9023 1.3789 4.3789 0.29687 1.082 0.54297 2.1172 0.78906 3.1992 0.14844 0.64062 0.24609 1.3281 0.39453 1.9688 0.050781 0.39453 0.73828 2.1172 0.14844 0.6875-0.58984-1.3789 0 0.24609 0.050781 0.6875 0.050781 0.6875 0.14844 1.3281 0.19531 2.0156 0.23438 1.4336 0.28516 2.8125 0.28516 4.1914 0.050781 5.1641 4.5273 10.086 9.8398 9.8398s9.8906-4.3281 9.8398-9.8398c-0.14844-23.418-12.203-45.215-31.93-57.809-12.25-7.8711-26.223-10.676-40.539-10.676h-73.848c-19.977 0-39.902-0.097656-59.875 0-22.828 0.097656-43.887 11.266-57.316 29.57-6.8867 9.3984-10.824 20.566-12.152 32.129-0.44141 3.8359-0.39453 7.7227-0.39453 11.562v73.949 1.9688c0 5.3125 4.5273 9.8398 9.8398 9.8398h25.586 61.203 73.996 63.961c10.383 0 20.762 0.24609 31.145 0h0.44141c5.3125 0 9.8398-4.5273 9.8398-9.8398v-70.801-9.8906c0-5.1641-4.5273-10.086-9.8398-9.8398-5.2695 0.19141-9.7969 4.2773-9.7969 9.8359z"></path>
  <path d="m532.54 241.97c-0.24609-23.812-19.141-43.492-42.953-44.625-11.609-0.58984-22.977 3.8867-31.684 11.512-8.6094 7.5781-13.43 18.402-14.562 29.668-1.5742 16.039 6.9375 31.586 16.336 43.938 10.035 13.188 21.797 24.797 34.391 35.523 7.5781 6.4453 15.398 12.695 23.566 18.301 2.6562 1.8711 7.2305 1.8711 9.9375 0 6.7891-4.7227 13.332-9.8398 19.73-15.105 12.055-9.9375 23.664-20.664 33.555-32.766 10.383-12.695 20.172-27.453 21.156-44.328 1.2773-22.043-15.301-42.852-37.195-46.148-13.43-2.0156-26.469 1.6719-36.852 10.48-9.6914 8.2656-15.105 20.91-15.203 33.555-0.050781 5.1641 4.5742 10.086 9.8398 9.8398 5.4609-0.25 9.8906-4.3359 9.9375-9.8438 0-1.1328 0.097656-2.2617 0.14844-3.4453 0.19531-2.2617-0.34375 1.7227-0.050781 0.29687 0.097656-0.54297 0.19531-1.082 0.29688-1.625 0.24609-1.082 0.54297-2.1641 0.83594-3.1992 0.14844-0.39453 0.29687-0.83594 0.44141-1.2305 0.78906-2.1641-0.19531-0.39453 0-0.097656-0.44141-0.64062 2.7539-4.9688 3.1992-5.6562 0.050782-0.097657 0.58984-0.98438 0.73828-1.0312-0.24609 0.34375-0.49219 0.64062-0.73828 0.98438 0.29688-0.34375 0.54297-0.64062 0.83594-0.98438 0.6875-0.78906 1.4766-1.5742 2.2148-2.3125 0.49219-0.44141 0.98438-0.83594 1.4258-1.2773 0.83594-0.73828 0-0.58984-0.49219 0.34375 0.34375-0.64062 2.0664-1.4258 2.6562-1.8203 0.93359-0.58984 1.8711-1.082 2.8555-1.5742 0.14844-0.097656 1.1328-0.58984 1.1797-0.54297-1.3789 0.54297-1.5234 0.64062-0.54297 0.24609 0.19531-0.097657 0.39453-0.14844 0.58984-0.24609 1.0312-0.39453 2.0664-0.6875 3.1484-0.98438 0.34375-0.097656 3.0508-0.93359 3.2969-0.6875-0.050781-0.050781-2.1641 0.19531-0.58984 0.097656 0.6875-0.050781 1.3789-0.097656 2.0664-0.14844 1.1328-0.050781 2.3125-0.050781 3.4453 0.050781 0.29688 0 1.8711-0.050781 2.0156 0.19531 0 0-2.5078-0.44141-0.58984-0.050781 1.082 0.24609 2.1641 0.44141 3.2461 0.73828 1.082 0.29688 2.0664 0.6875 3.1484 1.0312 1.4258 0.49219-0.44141-0.29687-0.54297-0.24609 0.19531-0.097657 1.4766 0.6875 1.7695 0.83594 0.93359 0.49219 1.8711 1.0312 2.8047 1.625 0.34375 0.24609 0.73828 0.49219 1.082 0.73828 0.19531 0.14844 0.34375 0.24609 0.54297 0.39453 0.83594 0.64062 0.6875 0.49219-0.44141-0.34375 0.73828-0.24609 4.0352 3.8867 4.5742 4.5273 1.4766 1.5742-0.88672-1.3789-0.14844-0.24609 0.29688 0.44141 0.64062 0.88672 0.93359 1.3281 0.58984 0.88672 1.1797 1.8203 1.6719 2.7539 0.19531 0.39453 0.39453 0.78906 0.58984 1.1328 0.14844 0.29688 1.2305 1.8203 0.29688 0.58984-0.88672-1.1797 0.097657 0.24609 0.24609 0.64062 0.24609 0.64062 0.44141 1.2305 0.64062 1.8711 0.29688 1.082 0.58984 2.1172 0.78906 3.2461 0-0.050781 0.29688 1.2773 0.24609 1.3281-0.050781-0.44141-0.097656-0.83594-0.14844-1.2773 0.050781 0.44141 0.097656 0.88672 0.14844 1.3789 0.14844 1.7695 0.14844 3.5898 0.050782 5.3633-0.050782 0.34375-0.050782 0.73828-0.097657 1.082-0.097656 1.082-0.64062 1.1328 0.14844-1.082-0.24609 0.6875-0.24609 1.5234-0.39453 2.2148-0.29688 1.5234-0.73828 3-1.1797 4.4766-0.24609 0.73828-0.49219 1.5234-0.78906 2.2617-0.29688 0.78906-1.625 3.3945-0.097657 0.39453-0.73828 1.5234-1.4258 3.0508-2.2148 4.5742-1.6719 3.1484-3.543 6.1484-5.5117 9.1016-1.0312 1.5234-2.1172 3-3.2461 4.4766-0.24609 0.29687-0.44141 0.58984-0.6875 0.88672 1.5742-2.2148 0.73828-0.98438 0.34375-0.44141-0.64062 0.78906-1.2773 1.625-1.9688 2.4102-9.2969 11.266-20.023 21.305-31.242 30.652-2.5078 2.0664-5.0195 4.1328-7.5273 6.1016-0.58984 0.49219-1.2305 0.93359-1.8203 1.4258-1.082 0.83594 1.2305-0.93359 1.1328-0.88672-0.34375 0.24609-0.64062 0.49219-0.98438 0.73828-0.98438 0.73828-1.918 1.4766-2.9023 2.2148-1.8203 1.3789-3.6914 2.7539-5.5586 4.0352h9.9375c-1.5234-1.0312-3-2.1172-4.4766-3.1992-1.6719-1.2305-3.3438-2.5078-5.0195-3.7891 3.1484 2.3633-0.49219-0.39453-1.3789-1.082-1.1328-0.88672-2.2148-1.7695-3.3438-2.6562-11.07-8.9531-21.648-18.598-31.094-29.273-1.2773-1.4258-2.5078-2.8555-3.6914-4.3281-0.54297-0.64062-1.082-1.3281-1.625-1.9688-0.29688-0.34375-0.54297-0.73828-0.88672-1.082 1.918 2.1172 0.58984 0.73828 0.14844 0.19531-2.2148-2.9023-4.2812-5.9023-6.1484-9.0039-1.8203-2.9531-3.2461-6.0508-4.7734-9.1016 1.5234 3 0.14844 0.39453-0.097657-0.39453-0.29687-0.73828-0.54297-1.5234-0.78906-2.2617-0.49219-1.4766-0.88672-2.9531-1.1797-4.4766-0.14844-0.73828-0.24609-1.4766-0.39453-2.2148 0.78906 3.2969 0.14844 1.0312 0.050781-0.050782-0.14844-1.7695-0.097656-3.5898 0.050782-5.3633 0-0.29688 0.44141-2.3125 0.050781-0.73828-0.44141 1.6719 0.097656-0.44141 0.14844-0.6875 0.19531-1.082 0.49219-2.1641 0.78906-3.2461 0.29688-0.93359 0.6875-1.8711 0.98438-2.8047 0.39453-1.3281-1.082 2.1641-0.097656 0.24609 0.29688-0.58984 0.58984-1.1797 0.88672-1.7227 0.49219-0.93359 1.082-1.8711 1.6719-2.7539 0.24609-0.34375 0.49219-0.6875 0.73828-1.082 1.2773-1.8711-1.4766 1.625 0.050781-0.050781 0.54297-0.54297 3.8359-4.7734 4.5742-4.5273-0.29688-0.097657-1.7695 1.2305-0.19531 0.14844 0.44141-0.29688 0.88672-0.64062 1.3281-0.88672 0.83594-0.54297 1.6719-1.0312 2.5078-1.4766 0.49219-0.24609 0.98438-0.49219 1.4766-0.73828 1.6719-0.88672-0.54297 0.19531-0.54297 0.19531 0.34375-0.58984 3.0508-1.082 3.7383-1.2773 1.1797-0.34375 2.3633-0.54297 3.5898-0.78906 1.4258-0.29688-2.5586 0.19531-0.24609 0.050781 0.6875-0.050781 1.3789-0.097656 2.0664-0.14844 1.3789-0.050781 2.7539-0.050781 4.1328 0.097657 0.44141 0.050781 0.93359 0.14844 1.3789 0.14844-2.5586 0.097656-0.73828-0.097656 0.050781 0.050782 1.2773 0.24609 2.6094 0.58984 3.8359 0.98437 0.39453 0.14844 0.83594 0.29688 1.2305 0.44141 0.39453 0.14844 0.83594 0.29688 1.2305 0.49219-1.2305-0.54297-1.5234-0.64062-0.83594-0.34375 0.98438 0.64062 2.1641 1.082 3.1484 1.6719 0.73828 0.44141 2.8555 1.4258 3.1992 2.1641-0.050781-0.050782-1.8203-1.5742-0.49219-0.34375 0.49219 0.44141 0.98438 0.83594 1.4258 1.2773 0.93359 0.88672 1.7695 1.8711 2.6562 2.8047 1.2305 1.3789-0.29687-0.44141-0.34375-0.49219 0.44141 0.14844 1.0312 1.4258 1.2773 1.8711 0.64062 0.98438 1.2773 2.0156 1.8203 3.0508 0.24609 0.49219 0.44141 1.0312 0.73828 1.4766 0.29688 0.6875 0.19531 0.39453-0.34375-0.83594 0.14844 0.39453 0.34375 0.83594 0.49219 1.2305 0.39453 1.0312 0.6875 2.0664 0.98437 3.1484 0.14844 0.64062 0.29688 1.2773 0.44141 1.9688 0.14844 0.78906 0 2.6094 0.050781 0.050781-0.050781 1.3281 0.24609 2.7539 0.24609 4.082 0.050781 5.1641 4.4766 10.086 9.8398 9.8398 5.1641-0.25 9.7891-4.3359 9.7383-9.8438z"></path>
 </g>

      </g>
     <g id="IconSvg_iconCarrier">
      <g xmlns="http://www.w3.org/2000/svg">
  <path d="m338.2 384.7c-2.5078 0-5.0195 0.050782-7.4766-0.050781-1.1328-0.050781-2.2617-0.14844-3.3945-0.24609-0.44141-0.050782-0.88672-0.14844-1.3281-0.14844 2.4102 0.14844 1.2305 0.19531 0.58984 0.050781-2.2148-0.39453-4.3789-0.83594-6.4961-1.4258-1.918-0.54297-3.7891-1.1797-5.6094-1.8711-1.7227-0.64062 0.39453 0.24609 0.54297 0.24609-0.39453 0-1.1328-0.49219-1.4766-0.6875-1.082-0.49219-2.1641-1.0312-3.1992-1.625-1.7227-0.93359-3.3945-1.918-5.0195-3-0.78906-0.54297-1.5742-1.1797-2.3633-1.6719-1.1797-0.73828 1.8711 1.5742 0.19531 0.14844-0.49219-0.39453-0.98438-0.83594-1.4766-1.2305-1.4766-1.2773-2.8555-2.6094-4.2305-3.9844-0.58984-0.64062-1.1797-1.2773-1.7695-1.918-0.44141-0.49219-0.83594-0.98438-1.2773-1.4766-0.14844-0.14844-0.29687-0.34375-0.39453-0.49219-0.64062-0.83594-0.54297-0.6875 0.34375 0.44141-0.54297-0.24609-1.1797-1.5742-1.5234-2.1172-0.58984-0.88672-1.1797-1.8203-1.7695-2.707-1.082-1.7695-2.0664-3.5898-2.9531-5.4102-0.24609-0.49219-0.44141-0.98438-0.6875-1.4766-0.58984-1.2305-0.19531 0.29688 0.24609 0.54297-0.44141-0.24609-0.88672-2.3125-1.0312-2.7539-0.73828-2.0664-1.3281-4.2305-1.8203-6.3477-0.24609-0.98438-0.44141-1.9688-0.58984-2.9531 0 0-0.29688-1.2305-0.19531-1.3281-0.39453 0.49219 0.24609 2.1641 0.050782 0.29688-0.24609-2.1641-0.34375-4.3281-0.34375-6.4961-0.050782-9.2969 0-18.598 0-27.898v-4.4766c0-0.98438 0-2.0156 0.050781-3 0.050781-0.88672 0.097656-1.8203 0.19531-2.707 0.050781-0.54297 0.097656-1.1328 0.19531-1.6719 0.097656-0.93359-0.34375 2.2617 0.050781-0.050781 0.6875-4.2305 2.1641-8.0703 3.3945-12.102 0.44141-1.3789-1.0312 2.2148-0.097656 0.24609 0.19531-0.39453 0.34375-0.78906 0.54297-1.1797 0.39453-0.88672 0.83594-1.7695 1.3281-2.6094 0.98438-1.8203 2.0156-3.5898 3.1992-5.2656 0.34375-0.49219 1.3281-2.4102 1.8711-2.6562-0.097656 0.050782-1.5234 1.8711-0.34375 0.44141 0.29688-0.34375 0.54297-0.6875 0.83594-0.98438 1.3789-1.625 2.8555-3.1992 4.4297-4.7227 0.78906-0.73828 1.5742-1.4766 2.4102-2.1641 0.49219-0.44141 1.3789-1.5234 2.0156-1.625-1.2773 0.24609-1.2773 0.93359-0.19531 0.14844 0.44141-0.29687 0.88672-0.64062 1.3281-0.93359 0.88672-0.58984 1.8203-1.1797 2.707-1.7695 1.6719-1.0312 3.3945-1.9688 5.1172-2.8047 0.49219-0.24609 0.98438-0.44141 1.4766-0.6875 1.4766-0.6875 0.19531-0.6875-0.24609 0.097656 0.34375-0.54297 2.4102-0.93359 3.1016-1.1328 1.8711-0.64062 3.7891-1.1797 5.707-1.625 0.98438-0.24609 1.9688-0.44141 2.9531-0.58984 0.24609-0.050781 1.5234-0.39453 1.6719-0.29688-0.44141 0.050781-0.83594 0.097656-1.2773 0.14844 0.44141-0.050781 0.88672-0.097656 1.3281-0.14844 3.1992-0.34375 6.4453-0.29688 9.6445-0.29688 1.3281 0 2.6562 0 3.9844 0.050781 0.88672 0.050781 1.8203 0.097657 2.707 0.19531 0.54297 0.050781 1.1328 0.097656 1.6719 0.19531 0.93359 0.097656-2.2617-0.34375 0.050782 0.050782 4.2305 0.6875 8.0703 2.1641 12.102 3.3945 1.3789 0.44141-2.2148-1.0312-0.24609-0.097657 0.39453 0.19531 0.78906 0.34375 1.1797 0.54297 0.88672 0.39453 1.7695 0.83594 2.6094 1.3281 1.8203 0.98438 3.5898 2.0156 5.2656 3.1992 0.49219 0.34375 2.4102 1.3281 2.6562 1.8711-0.050782-0.097657-1.8711-1.5234-0.44141-0.34375 0.39453 0.34375 0.83594 0.6875 1.2305 1.0312 1.5742 1.3281 3.0508 2.707 4.4766 4.2305 0.73828 0.78906 1.4766 1.5742 2.1641 2.4102 0.44141 0.49219 1.5234 1.3789 1.625 2.0156-0.24609-1.2773-0.93359-1.2773-0.14844-0.19531 0.29688 0.44141 0.64062 0.88672 0.93359 1.3281 0.58984 0.88672 1.1797 1.8203 1.7695 2.707 1.0312 1.6719 1.9688 3.3945 2.8047 5.1172 0.24609 0.49219 0.44141 0.98438 0.6875 1.4766 0.6875 1.4766 0.6875 0.19531-0.097656-0.24609 0.54297 0.34375 0.93359 2.4102 1.1328 3.1016 0.64063 1.8711 1.1797 3.7891 1.625 5.707 0.24609 0.98438 0.44141 1.9688 0.58984 2.9531 0.050782 0.24609 0.39453 1.5234 0.29688 1.6719-0.050781-0.44141-0.097656-0.83594-0.14844-1.2773 0.050781 0.44141 0.097656 0.88672 0.14844 1.3281 0.44141 4.1836 0.29688 8.4141 0.29688 12.594v17.418c0 3.8359 0.097656 7.6758-0.050781 11.512-0.050781 1.1328-0.14844 2.2617-0.24609 3.3945-0.050781 0.44141-0.14844 0.88672-0.14844 1.3281 0.14844-2.4102 0.19531-1.2305 0.050781-0.58984-0.39453 2.2148-0.83594 4.3789-1.4258 6.4961-0.54297 1.918-1.1797 3.7891-1.8711 5.6094-0.64062 1.7227 0.24609-0.39453 0.24609-0.54297 0 0.39453-0.49219 1.1328-0.6875 1.4766-0.49219 1.082-1.0312 2.1641-1.625 3.1992-0.93359 1.7227-1.918 3.3945-3 5.0195-0.54297 0.78906-1.1797 1.5742-1.6719 2.3633-0.73828 1.1797 1.5742-1.8711 0.14844-0.19531-0.39453 0.49219-0.83594 0.98438-1.2305 1.4766-1.2773 1.4766-2.6094 2.8555-3.9844 4.2305-0.64062 0.58984-1.2773 1.1797-1.918 1.7695-0.39453 0.34375-0.83594 0.6875-1.2305 1.0312-0.24609 0.19531-2.0664 1.5742-0.78906 0.64062 1.1797-0.88672-1.1797 0.83594-1.625 1.1328-0.88672 0.58984-1.8203 1.1797-2.707 1.7695-1.7695 1.082-3.5898 2.0664-5.4102 2.9531-0.49219 0.24609-0.98438 0.44141-1.4766 0.6875-1.2305 0.58984 0.29688 0.19531 0.54297-0.24609-0.24609 0.44141-2.3125 0.88672-2.7539 1.0312-1.9688 0.6875-3.9844 1.2773-6.0508 1.7695-1.082 0.24609-2.1641 0.49219-3.2969 0.6875 0 0-1.2305 0.29688-1.3281 0.19531 0.49219 0.39453 2.1641-0.24609 0.29688-0.050781-2.293 0.003906-4.457 0.10156-6.6211 0.10156-5.1641 0.050782-10.086 4.5273-9.8398 9.8398 0.24609 5.3125 4.3281 9.8906 9.8398 9.8398 19.633-0.097656 39.016-8.6094 51.906-23.469 11.609-13.332 17.516-29.863 17.516-47.527v-30.652c-0.050781-18.301-7.1328-35.965-19.926-49.051-13.383-13.676-31.734-20.859-50.727-20.859-8.5625 0-17.121 0.73828-25.289 3.543-9.543 3.2461-18.254 8.4141-25.633 15.301-14.023 12.988-21.941 31.684-22.043 50.727-0.050781 9.9883 0 20.023 0 30.012 0 6.6914 0.54297 13.383 2.2148 19.875 2.5078 9.7422 7.2305 18.547 13.48 26.422 12.152 15.301 30.945 24.5 50.332 25.633 2.707 0.14844 5.4609 0.097656 8.168 0.097656 5.1641 0 10.086-4.5273 9.8398-9.8398-0.24609-5.3633-4.3281-9.8906-9.8398-9.8906z"></path>
  <path d="m454.17 512.18v70.801 9.8906c3.2969-3.2969 6.543-6.543 9.8398-9.8398h-25.586-61.203-73.996-63.961c-10.332 0-20.812-0.44141-31.145 0h-0.44141c3.2969 3.2969 6.543 6.543 9.8398 9.8398v-67.258-12.203c0-1.5742 0-3.1016 0.097656-4.6758 0.050781-1.1328 0.29688-2.2617 0.29688-3.3945 0 2.6562-0.097656 0.6875 0.050782-0.050782 0.097656-0.64062 0.24609-1.3281 0.34375-1.9688 0.54297-2.6094 1.2305-5.1641 2.1172-7.625 0.14844-0.39453 0.29688-0.83594 0.44141-1.2305 0.097657-0.19531 0.14844-0.39453 0.24609-0.58984 0.39453-0.98438 0.34375-0.78906-0.24609 0.54297-0.14844-0.78906 1.3281-2.8047 1.6719-3.543 1.1328-2.2148 2.4102-4.3281 3.8359-6.3945 0.29688-0.44141 0.64062-0.88672 0.93359-1.3281 1.2773-1.8711-1.4258 1.6719 0.050781-0.050782 0.73828-0.93359 1.5234-1.8203 2.3125-2.707 1.6719-1.8203 3.4453-3.5898 5.3125-5.2148 0.49219-0.44141 0.98438-0.83594 1.4766-1.2305 1.7227-1.4766-1.7695 1.2773 0.050781-0.050781 0.88672-0.64062 1.7695-1.2773 2.6562-1.8711 2.1641-1.4258 4.4766-2.7539 6.7891-3.8867 0.58984-0.29688 1.1797-0.54297 1.7695-0.83594 2.0664-0.98438-2.0664 0.78906 0.050782-0.050781 1.0312-0.39453 2.0664-0.78906 3.1016-1.1328 2.5078-0.83594 5.1172-1.5234 7.7227-2.0156 0.64062-0.14844 1.3281-0.24609 1.9688-0.34375 2.3125-0.44141-2.3125 0.19531 0.050782 0 1.1328-0.097656 2.2617-0.24609 3.3945-0.29687 1.1797-0.050782 2.3633-0.097657 3.543-0.097657h1.8711 9.7422 36.164 79.359 8.7578 1.3789c2.0664 0 4.082 0.097657 6.1484 0.29688 0.24609 0 0.44141 0.050782 0.6875 0.050782 1.082 0.14844 0.88672 0.097656-0.58984-0.097657 0.19531-0.14844 1.7227 0.29688 1.9688 0.34375 1.3281 0.24609 2.6094 0.54297 3.8867 0.83594 2.3633 0.58984 4.5742 1.3789 6.8867 2.2148 2.1641 0.78906-2.0156-0.93359 0.050782 0 0.58984 0.29688 1.1797 0.54297 1.7695 0.83594 1.1797 0.54297 2.3125 1.1797 3.4453 1.8203 2.0664 1.1797 3.9844 2.5078 5.9531 3.8359 1.8711 1.2773-1.6719-1.4258 0.050782 0.050781 0.34375 0.29688 0.64062 0.54297 0.98437 0.83594 1.1328 0.98438 2.2617 1.9688 3.2969 3 1.6719 1.6719 3.1992 3.3945 4.7227 5.2148 1.4258 1.7227-1.2773-1.8203 0 0.050782 0.24609 0.34375 0.49219 0.6875 0.73828 1.0312 0.83594 1.2305 1.6719 2.5078 2.4102 3.7891 0.54297 0.93359 1.082 1.8711 1.5742 2.8047 0.29688 0.58984 1.8711 2.9023 1.6719 3.4922 0.097656-0.34375-0.73828-1.8711-0.24609-0.54297 0.24609 0.58984 0.49219 1.2305 0.6875 1.8203 0.49219 1.4258 0.98438 2.9023 1.3789 4.3789 0.29687 1.082 0.54297 2.1172 0.78906 3.1992 0.14844 0.64062 0.24609 1.3281 0.39453 1.9688 0.050781 0.39453 0.73828 2.1172 0.14844 0.6875-0.58984-1.3789 0 0.24609 0.050781 0.6875 0.050781 0.6875 0.14844 1.3281 0.19531 2.0156 0.23438 1.4336 0.28516 2.8125 0.28516 4.1914 0.050781 5.1641 4.5273 10.086 9.8398 9.8398s9.8906-4.3281 9.8398-9.8398c-0.14844-23.418-12.203-45.215-31.93-57.809-12.25-7.8711-26.223-10.676-40.539-10.676h-73.848c-19.977 0-39.902-0.097656-59.875 0-22.828 0.097656-43.887 11.266-57.316 29.57-6.8867 9.3984-10.824 20.566-12.152 32.129-0.44141 3.8359-0.39453 7.7227-0.39453 11.562v73.949 1.9688c0 5.3125 4.5273 9.8398 9.8398 9.8398h25.586 61.203 73.996 63.961c10.383 0 20.762 0.24609 31.145 0h0.44141c5.3125 0 9.8398-4.5273 9.8398-9.8398v-70.801-9.8906c0-5.1641-4.5273-10.086-9.8398-9.8398-5.2695 0.19141-9.7969 4.2773-9.7969 9.8359z"></path>
  <path d="m532.54 241.97c-0.24609-23.812-19.141-43.492-42.953-44.625-11.609-0.58984-22.977 3.8867-31.684 11.512-8.6094 7.5781-13.43 18.402-14.562 29.668-1.5742 16.039 6.9375 31.586 16.336 43.938 10.035 13.188 21.797 24.797 34.391 35.523 7.5781 6.4453 15.398 12.695 23.566 18.301 2.6562 1.8711 7.2305 1.8711 9.9375 0 6.7891-4.7227 13.332-9.8398 19.73-15.105 12.055-9.9375 23.664-20.664 33.555-32.766 10.383-12.695 20.172-27.453 21.156-44.328 1.2773-22.043-15.301-42.852-37.195-46.148-13.43-2.0156-26.469 1.6719-36.852 10.48-9.6914 8.2656-15.105 20.91-15.203 33.555-0.050781 5.1641 4.5742 10.086 9.8398 9.8398 5.4609-0.25 9.8906-4.3359 9.9375-9.8438 0-1.1328 0.097656-2.2617 0.14844-3.4453 0.19531-2.2617-0.34375 1.7227-0.050781 0.29687 0.097656-0.54297 0.19531-1.082 0.29688-1.625 0.24609-1.082 0.54297-2.1641 0.83594-3.1992 0.14844-0.39453 0.29687-0.83594 0.44141-1.2305 0.78906-2.1641-0.19531-0.39453 0-0.097656-0.44141-0.64062 2.7539-4.9688 3.1992-5.6562 0.050782-0.097657 0.58984-0.98438 0.73828-1.0312-0.24609 0.34375-0.49219 0.64062-0.73828 0.98438 0.29688-0.34375 0.54297-0.64062 0.83594-0.98438 0.6875-0.78906 1.4766-1.5742 2.2148-2.3125 0.49219-0.44141 0.98438-0.83594 1.4258-1.2773 0.83594-0.73828 0-0.58984-0.49219 0.34375 0.34375-0.64062 2.0664-1.4258 2.6562-1.8203 0.93359-0.58984 1.8711-1.082 2.8555-1.5742 0.14844-0.097656 1.1328-0.58984 1.1797-0.54297-1.3789 0.54297-1.5234 0.64062-0.54297 0.24609 0.19531-0.097657 0.39453-0.14844 0.58984-0.24609 1.0312-0.39453 2.0664-0.6875 3.1484-0.98438 0.34375-0.097656 3.0508-0.93359 3.2969-0.6875-0.050781-0.050781-2.1641 0.19531-0.58984 0.097656 0.6875-0.050781 1.3789-0.097656 2.0664-0.14844 1.1328-0.050781 2.3125-0.050781 3.4453 0.050781 0.29688 0 1.8711-0.050781 2.0156 0.19531 0 0-2.5078-0.44141-0.58984-0.050781 1.082 0.24609 2.1641 0.44141 3.2461 0.73828 1.082 0.29688 2.0664 0.6875 3.1484 1.0312 1.4258 0.49219-0.44141-0.29687-0.54297-0.24609 0.19531-0.097657 1.4766 0.6875 1.7695 0.83594 0.93359 0.49219 1.8711 1.0312 2.8047 1.625 0.34375 0.24609 0.73828 0.49219 1.082 0.73828 0.19531 0.14844 0.34375 0.24609 0.54297 0.39453 0.83594 0.64062 0.6875 0.49219-0.44141-0.34375 0.73828-0.24609 4.0352 3.8867 4.5742 4.5273 1.4766 1.5742-0.88672-1.3789-0.14844-0.24609 0.29688 0.44141 0.64062 0.88672 0.93359 1.3281 0.58984 0.88672 1.1797 1.8203 1.6719 2.7539 0.19531 0.39453 0.39453 0.78906 0.58984 1.1328 0.14844 0.29688 1.2305 1.8203 0.29688 0.58984-0.88672-1.1797 0.097657 0.24609 0.24609 0.64062 0.24609 0.64062 0.44141 1.2305 0.64062 1.8711 0.29688 1.082 0.58984 2.1172 0.78906 3.2461 0-0.050781 0.29688 1.2773 0.24609 1.3281-0.050781-0.44141-0.097656-0.83594-0.14844-1.2773 0.050781 0.44141 0.097656 0.88672 0.14844 1.3789 0.14844 1.7695 0.14844 3.5898 0.050782 5.3633-0.050782 0.34375-0.050782 0.73828-0.097657 1.082-0.097656 1.082-0.64062 1.1328 0.14844-1.082-0.24609 0.6875-0.24609 1.5234-0.39453 2.2148-0.29688 1.5234-0.73828 3-1.1797 4.4766-0.24609 0.73828-0.49219 1.5234-0.78906 2.2617-0.29688 0.78906-1.625 3.3945-0.097657 0.39453-0.73828 1.5234-1.4258 3.0508-2.2148 4.5742-1.6719 3.1484-3.543 6.1484-5.5117 9.1016-1.0312 1.5234-2.1172 3-3.2461 4.4766-0.24609 0.29687-0.44141 0.58984-0.6875 0.88672 1.5742-2.2148 0.73828-0.98438 0.34375-0.44141-0.64062 0.78906-1.2773 1.625-1.9688 2.4102-9.2969 11.266-20.023 21.305-31.242 30.652-2.5078 2.0664-5.0195 4.1328-7.5273 6.1016-0.58984 0.49219-1.2305 0.93359-1.8203 1.4258-1.082 0.83594 1.2305-0.93359 1.1328-0.88672-0.34375 0.24609-0.64062 0.49219-0.98438 0.73828-0.98438 0.73828-1.918 1.4766-2.9023 2.2148-1.8203 1.3789-3.6914 2.7539-5.5586 4.0352h9.9375c-1.5234-1.0312-3-2.1172-4.4766-3.1992-1.6719-1.2305-3.3438-2.5078-5.0195-3.7891 3.1484 2.3633-0.49219-0.39453-1.3789-1.082-1.1328-0.88672-2.2148-1.7695-3.3438-2.6562-11.07-8.9531-21.648-18.598-31.094-29.273-1.2773-1.4258-2.5078-2.8555-3.6914-4.3281-0.54297-0.64062-1.082-1.3281-1.625-1.9688-0.29688-0.34375-0.54297-0.73828-0.88672-1.082 1.918 2.1172 0.58984 0.73828 0.14844 0.19531-2.2148-2.9023-4.2812-5.9023-6.1484-9.0039-1.8203-2.9531-3.2461-6.0508-4.7734-9.1016 1.5234 3 0.14844 0.39453-0.097657-0.39453-0.29687-0.73828-0.54297-1.5234-0.78906-2.2617-0.49219-1.4766-0.88672-2.9531-1.1797-4.4766-0.14844-0.73828-0.24609-1.4766-0.39453-2.2148 0.78906 3.2969 0.14844 1.0312 0.050781-0.050782-0.14844-1.7695-0.097656-3.5898 0.050782-5.3633 0-0.29688 0.44141-2.3125 0.050781-0.73828-0.44141 1.6719 0.097656-0.44141 0.14844-0.6875 0.19531-1.082 0.49219-2.1641 0.78906-3.2461 0.29688-0.93359 0.6875-1.8711 0.98438-2.8047 0.39453-1.3281-1.082 2.1641-0.097656 0.24609 0.29688-0.58984 0.58984-1.1797 0.88672-1.7227 0.49219-0.93359 1.082-1.8711 1.6719-2.7539 0.24609-0.34375 0.49219-0.6875 0.73828-1.082 1.2773-1.8711-1.4766 1.625 0.050781-0.050781 0.54297-0.54297 3.8359-4.7734 4.5742-4.5273-0.29688-0.097657-1.7695 1.2305-0.19531 0.14844 0.44141-0.29688 0.88672-0.64062 1.3281-0.88672 0.83594-0.54297 1.6719-1.0312 2.5078-1.4766 0.49219-0.24609 0.98438-0.49219 1.4766-0.73828 1.6719-0.88672-0.54297 0.19531-0.54297 0.19531 0.34375-0.58984 3.0508-1.082 3.7383-1.2773 1.1797-0.34375 2.3633-0.54297 3.5898-0.78906 1.4258-0.29688-2.5586 0.19531-0.24609 0.050781 0.6875-0.050781 1.3789-0.097656 2.0664-0.14844 1.3789-0.050781 2.7539-0.050781 4.1328 0.097657 0.44141 0.050781 0.93359 0.14844 1.3789 0.14844-2.5586 0.097656-0.73828-0.097656 0.050781 0.050782 1.2773 0.24609 2.6094 0.58984 3.8359 0.98437 0.39453 0.14844 0.83594 0.29688 1.2305 0.44141 0.39453 0.14844 0.83594 0.29688 1.2305 0.49219-1.2305-0.54297-1.5234-0.64062-0.83594-0.34375 0.98438 0.64062 2.1641 1.082 3.1484 1.6719 0.73828 0.44141 2.8555 1.4258 3.1992 2.1641-0.050781-0.050782-1.8203-1.5742-0.49219-0.34375 0.49219 0.44141 0.98438 0.83594 1.4258 1.2773 0.93359 0.88672 1.7695 1.8711 2.6562 2.8047 1.2305 1.3789-0.29687-0.44141-0.34375-0.49219 0.44141 0.14844 1.0312 1.4258 1.2773 1.8711 0.64062 0.98438 1.2773 2.0156 1.8203 3.0508 0.24609 0.49219 0.44141 1.0312 0.73828 1.4766 0.29688 0.6875 0.19531 0.39453-0.34375-0.83594 0.14844 0.39453 0.34375 0.83594 0.49219 1.2305 0.39453 1.0312 0.6875 2.0664 0.98437 3.1484 0.14844 0.64062 0.29688 1.2773 0.44141 1.9688 0.14844 0.78906 0 2.6094 0.050781 0.050781-0.050781 1.3281 0.24609 2.7539 0.24609 4.082 0.050781 5.1641 4.4766 10.086 9.8398 9.8398 5.1641-0.25 9.7891-4.3359 9.7383-9.8438z"></path>
 </g>

      </g>
      </svg>